<svg width="357" height="101" viewBox="0 0 357 101" fill="none" xmlns="http://www.w3.org/2000/svg">
<path d="M135.156 86.864C130.164 86.864 126.388 85.424 123.828 82.544C121.332 79.6 120.084 75.376 120.084 69.872V22.544C120.084 20.944 120.5 19.728 121.332 18.896C122.164 18.064 123.348 17.648 124.884 17.648C126.42 17.648 127.604 18.064 128.436 18.896C129.332 19.728 129.78 20.944 129.78 22.544V69.296C129.78 72.496 130.42 74.896 131.7 76.496C133.044 78.032 134.964 78.8 137.46 78.8C138.036 78.8 138.548 78.8 138.996 78.8C139.444 78.736 139.892 78.672 140.34 78.608C141.108 78.544 141.652 78.768 141.972 79.28C142.292 79.728 142.452 80.688 142.452 82.16C142.452 83.504 142.164 84.56 141.588 85.328C141.012 86.032 140.084 86.48 138.804 86.672C138.228 86.736 137.62 86.768 136.98 86.768C136.34 86.832 135.732 86.864 135.156 86.864Z" fill="white"/>
<path d="M95.9113 86.864C91.1113 86.864 86.9513 85.872 83.4313 83.888C79.9753 81.84 77.2873 78.992 75.3673 75.344C73.4473 71.632 72.4873 67.28 72.4873 62.288C72.4873 58.576 73.0313 55.248 74.1193 52.304C75.2073 49.296 76.7433 46.768 78.7273 44.72C80.7753 42.672 83.2393 41.104 86.1193 40.016C89.0633 38.864 92.3273 38.288 95.9113 38.288C98.1513 38.288 100.487 38.64 102.919 39.344C105.415 39.984 107.719 41.072 109.831 42.608C110.663 43.12 111.175 43.76 111.367 44.528C111.623 45.232 111.655 45.968 111.463 46.736C111.335 47.504 110.983 48.176 110.407 48.752C109.895 49.264 109.255 49.584 108.487 49.712C107.719 49.776 106.887 49.552 105.991 49.04C104.455 47.952 102.887 47.184 101.287 46.736C99.6873 46.224 98.1513 45.968 96.6793 45.968C94.3753 45.968 92.3273 46.352 90.5353 47.12C88.8073 47.824 87.3353 48.88 86.1193 50.288C84.9033 51.632 83.9753 53.328 83.3353 55.376C82.7593 57.424 82.4713 59.76 82.4713 62.384C82.4713 67.632 83.6873 71.76 86.1193 74.768C88.6153 77.712 92.1353 79.184 96.6793 79.184C98.1513 79.184 99.6873 78.96 101.287 78.512C102.887 78.064 104.455 77.296 105.991 76.208C106.887 75.696 107.719 75.504 108.487 75.632C109.255 75.76 109.863 76.112 110.311 76.688C110.823 77.2 111.143 77.84 111.271 78.608C111.463 79.312 111.431 80.048 111.175 80.816C110.919 81.584 110.375 82.224 109.543 82.736C107.495 84.208 105.255 85.264 102.823 85.904C100.455 86.544 98.1513 86.864 95.9113 86.864Z" fill="white"/>
<path d="M56.7276 86.576C55.1916 86.576 54.0076 86.128 53.1756 85.232C52.3436 84.272 51.9276 82.96 51.9276 81.296V43.856C51.9276 42.192 52.3436 40.912 53.1756 40.016C54.0076 39.12 55.1916 38.672 56.7276 38.672C58.2636 38.672 59.4476 39.12 60.2796 40.016C61.1756 40.912 61.6236 42.192 61.6236 43.856V81.296C61.6236 82.96 61.2076 84.272 60.3756 85.232C59.5436 86.128 58.3276 86.576 56.7276 86.576ZM56.7276 28.688C54.8076 28.688 53.3036 28.208 52.2156 27.248C51.1916 26.288 50.6796 24.944 50.6796 23.216C50.6796 21.424 51.1916 20.08 52.2156 19.184C53.3036 18.224 54.8076 17.744 56.7276 17.744C58.6476 17.744 60.1196 18.224 61.1436 19.184C62.2316 20.08 62.7756 21.424 62.7756 23.216C62.7756 24.944 62.2316 26.288 61.1436 27.248C60.1196 28.208 58.6476 28.688 56.7276 28.688Z" fill="white"/>
<path d="M27.7551 86.864C22.9551 86.864 18.7951 85.872 15.2751 83.888C11.8191 81.84 9.13105 78.992 7.21105 75.344C5.29105 71.632 4.33105 67.28 4.33105 62.288C4.33105 58.576 4.87505 55.248 5.96305 52.304C7.05105 49.296 8.58706 46.768 10.5711 44.72C12.6191 42.672 15.0831 41.104 17.9631 40.016C20.9071 38.864 24.1711 38.288 27.7551 38.288C29.9951 38.288 32.3311 38.64 34.7631 39.344C37.2591 39.984 39.5631 41.072 41.6751 42.608C42.5071 43.12 43.0191 43.76 43.2111 44.528C43.4671 45.232 43.4991 45.968 43.3071 46.736C43.1791 47.504 42.8271 48.176 42.2511 48.752C41.7391 49.264 41.0991 49.584 40.3311 49.712C39.5631 49.776 38.7311 49.552 37.8351 49.04C36.2991 47.952 34.7311 47.184 33.1311 46.736C31.5311 46.224 29.9951 45.968 28.5231 45.968C26.2191 45.968 24.1711 46.352 22.3791 47.12C20.6511 47.824 19.1791 48.88 17.9631 50.288C16.7471 51.632 15.8191 53.328 15.1791 55.376C14.6031 57.424 14.3151 59.76 14.3151 62.384C14.3151 67.632 15.5311 71.76 17.9631 74.768C20.4591 77.712 23.9791 79.184 28.5231 79.184C29.9951 79.184 31.5311 78.96 33.1311 78.512C34.7311 78.064 36.2991 77.296 37.8351 76.208C38.7311 75.696 39.5631 75.504 40.3311 75.632C41.0991 75.76 41.7071 76.112 42.1551 76.688C42.6671 77.2 42.9871 77.84 43.1151 78.608C43.3071 79.312 43.2751 80.048 43.0191 80.816C42.7631 81.584 42.2191 82.224 41.3871 82.736C39.3391 84.208 37.0991 85.264 34.6671 85.904C32.2991 86.544 29.9951 86.864 27.7551 86.864Z" fill="white"/>
<path d="M333.661 84.576C328.541 84.576 324.125 83.616 320.413 81.696C316.765 79.712 313.917 76.928 311.869 73.344C309.885 69.696 308.893 65.376 308.893 60.384C308.893 55.52 309.885 51.264 311.869 47.616C313.853 43.968 316.573 41.12 320.029 39.072C323.485 37.024 327.421 36 331.837 36C335.101 36 338.013 36.544 340.573 37.632C343.133 38.656 345.309 40.192 347.101 42.24C348.957 44.224 350.333 46.656 351.229 49.536C352.189 52.416 352.669 55.648 352.669 59.232C352.669 60.32 352.349 61.152 351.709 61.728C351.069 62.24 350.109 62.496 348.829 62.496H316.573V56.544H346.141L344.509 57.888C344.509 54.688 344.029 51.968 343.069 49.728C342.173 47.488 340.797 45.792 338.941 44.64C337.149 43.424 334.909 42.816 332.221 42.816C329.213 42.816 326.653 43.52 324.541 44.928C322.493 46.336 320.925 48.288 319.837 50.784C318.749 53.28 318.205 56.192 318.205 59.52V60.096C318.205 65.728 319.517 69.984 322.141 72.864C324.829 75.68 328.701 77.088 333.757 77.088C335.677 77.088 337.693 76.832 339.805 76.32C341.981 75.808 344.029 74.944 345.949 73.728C347.037 73.088 347.997 72.8 348.829 72.864C349.725 72.928 350.429 73.216 350.941 73.728C351.517 74.24 351.869 74.88 351.997 75.648C352.125 76.416 351.997 77.216 351.613 78.048C351.229 78.816 350.557 79.52 349.597 80.16C347.421 81.632 344.893 82.752 342.013 83.52C339.133 84.224 336.349 84.576 333.661 84.576Z" fill="white"/>
<path d="M269.532 83.712C268.508 83.712 267.676 83.488 267.036 83.04C266.396 82.528 265.948 81.888 265.692 81.12C265.5 80.288 265.5 79.424 265.692 78.528C265.948 77.568 266.46 76.672 267.228 75.84L293.34 41.952V44.352H268.956C267.74 44.352 266.812 44.032 266.172 43.392C265.532 42.688 265.212 41.76 265.212 40.608C265.212 39.392 265.532 38.464 266.172 37.824C266.812 37.184 267.74 36.864 268.956 36.864H297.948C299.164 36.864 300.124 37.12 300.828 37.632C301.596 38.144 302.076 38.784 302.268 39.552C302.524 40.32 302.556 41.152 302.364 42.048C302.172 42.944 301.692 43.808 300.924 44.64L274.428 78.912V76.32H300.06C302.62 76.32 303.9 77.536 303.9 79.968C303.9 81.12 303.548 82.048 302.844 82.752C302.204 83.392 301.276 83.712 300.06 83.712H269.532Z" fill="white"/>
<path d="M234.435 84.576C229.699 84.576 225.603 83.584 222.147 81.6C218.755 79.616 216.099 76.8 214.179 73.152C212.259 69.504 211.299 65.216 211.299 60.288C211.299 56.512 211.843 53.152 212.931 50.208C214.019 47.264 215.555 44.736 217.539 42.624C219.587 40.448 222.019 38.816 224.835 37.728C227.715 36.576 230.915 36 234.435 36C239.107 36 243.139 36.992 246.531 38.976C249.987 40.96 252.675 43.776 254.595 47.424C256.515 51.008 257.475 55.296 257.475 60.288C257.475 64 256.931 67.36 255.843 70.368C254.755 73.376 253.187 75.936 251.139 78.048C249.155 80.16 246.723 81.792 243.843 82.944C241.027 84.032 237.891 84.576 234.435 84.576ZM234.435 77.088C237.059 77.088 239.363 76.448 241.347 75.168C243.331 73.888 244.867 72 245.955 69.504C247.107 67.008 247.683 63.936 247.683 60.288C247.683 54.784 246.467 50.624 244.035 47.808C241.603 44.992 238.403 43.584 234.435 43.584C231.747 43.584 229.411 44.224 227.427 45.504C225.443 46.72 223.875 48.576 222.723 51.072C221.635 53.568 221.091 56.64 221.091 60.288C221.091 65.728 222.307 69.888 224.739 72.768C227.171 75.648 230.403 77.088 234.435 77.088Z" fill="white"/>
<path fill-rule="evenodd" clip-rule="evenodd" d="M172.125 85.3456C185.837 85.3456 196.952 74.2304 196.952 60.5192C196.952 46.808 185.837 35.6928 172.125 35.6928C158.414 35.6928 147.299 46.808 147.299 60.5192C147.299 61.2481 147.33 61.9697 147.392 62.6827C148.386 52.1827 157.228 43.9683 167.988 43.9683C179.414 43.9683 188.676 53.2309 188.676 64.6569C188.676 75.4171 180.462 84.2586 169.962 85.2526C170.675 85.3142 171.397 85.3456 172.125 85.3456Z" fill="#2563EB"/>
<path fill-rule="evenodd" clip-rule="evenodd" d="M150.509 70.8098C152.282 77.5178 159.157 81.5186 165.865 79.7458C172.573 77.9729 176.574 71.0978 174.801 64.3898C173.028 57.6817 166.153 53.6809 159.445 55.4538C159.089 55.548 158.74 55.6567 158.399 55.7789C163.664 54.9077 168.826 58.1712 170.217 63.4354C171.695 69.0254 168.361 74.7547 162.771 76.2321C157.506 77.6233 152.119 74.7477 150.275 69.7392C150.337 70.096 150.415 70.4531 150.509 70.8098Z" fill="#2563EB"/>
<path fill-rule="evenodd" clip-rule="evenodd" d="M207.381 85.698C200.044 74.3139 195.573 57.3711 195.573 38.4511C195.573 23.1195 196.577 9.91409 199.46 0C192.806 9.76517 188.676 23.3848 188.676 38.4511C188.676 58.8368 196.237 76.5738 207.381 85.698Z" fill="#2563EB"/>
</svg>
